# xmcd
#
# Track frame offsets:
#	150
#	13496
#	31192
#	44896
#	59918
#	73805
#	86493
#	102370
#	114051
#	125811
#	144409
#	167077
#	181877
#	195322
#	211877
#	228262
#	244359
#	259269
#	281199
#	298611
#
# Disc length: 4148 seconds
#
# Revision: 0
# Processed by: cddbd v1.5.2PL0 Copyright (c) Steve Scherf et al.
# Submitted via: dBpowerAMP V4.0
#
DISCID=38103214
DTITLE=Various Artist - Best of SA Country Vol. 4 Disc 1
DYEAR=2008
DGENRE=Country
TTITLE0=Barbara Ray - I'm gonna be a country girl again
TTITLE1=Alan Ladd - Grandpa
TTITLE2=Ken Mullan - Storms never last
TTITLE3=OTH - Everybody's sombody's darling
TTITLE4=Bles Bridges - Green green grass of home
TTITLE5=Sally Vaughn - A tear fell
TTITLE6=Bobby Angel and Barbara Ray - Voices
TTITLE7=The Campbells - Hillbilly rock, hillbilly roll
TTITLE8=Chereé - Walkin' after midnight
TTITLE9=Lance James - Silver haired daddy of mine
TTITLE10=Steve Hofmeyer - Sunday mornin' comin' down
TTITLE11=Bobby Angel - My first taste of Texas
TTITLE12=Dusty Dixon - There's a honky tonk angel
TTITLE13=Clive Bruce - Forever and ever amen
TTITLE14=Tommy Dell - The gambler
TTITLE15=Lance James and Barbara Ray - My kind of woman, my kind of man
TTITLE16=Billy Forrest - Tiny bubbles
TTITLE17=Juanita du Plessis - Back home again
TTITLE18=Gerrie Pretorius - Old flames
TTITLE19=Maureen Moore - San Antonio Rose
EXTD=
EXTT0=
EXTT1=
EXTT2=
EXTT3=
EXTT4=
EXTT5=
EXTT6=
EXTT7=
EXTT8=
EXTT9=
EXTT10=
EXTT11=
EXTT12=
EXTT13=
EXTT14=
EXTT15=
EXTT16=
EXTT17=
EXTT18=
EXTT19=
PLAYORDER=
